<?xml version="1.0" encoding="UTF-8" standalone="no"?>
<!-- Created with Inkscape (http://www.inkscape.org/) -->

<svg
   width="183.49023mm"
   height="48.22958mm"
   viewBox="0 0 183.49023 48.22958"
   version="1.1"
   id="svg1"
   xmlns="http://www.w3.org/2000/svg"
   xmlns:svg="http://www.w3.org/2000/svg">
  <defs
     id="defs1" />
  <g
     id="layer1"
     transform="translate(-4.663109,-100.21196)">
    <circle
       style="fill:#000000;stroke-width:0.264583"
       id="path1"
       cx="12.989979"
       cy="136.37827"
       r="8.32687" />
    <path
       id="rect5"
       style="fill:#000000;stroke-width:24.973;stroke-dasharray:none"
       d="m 23.348962,100.21197 c -1.884958,0 -3.402376,1.51742 -3.402376,3.40238 v 22.4131 c 0,1.88496 1.517418,3.40238 3.402376,3.40238 h 22.413103 c 1.884958,0 3.402376,-1.51742 3.402376,-3.40238 v -22.4131 c 0,-1.88496 -1.517418,-3.40238 -3.402376,-3.40238 z m 11.30267,6.39083 a 8.32687,8.32687 0 0 1 8.32714,8.32714 8.32687,8.32687 0 0 1 -8.32714,8.32662 8.32687,8.32687 0 0 1 -8.326624,-8.32662 8.32687,8.32687 0 0 1 8.326624,-8.32714 z" />
    <path
       style="fill:#000000;stroke-width:24.973;stroke-dasharray:none"
       d="m 12.407616,130.60648 13.191254,-13.19125 6.269113,6.39971 -15.411566,15.41157 z"
       id="path11" />
    <path
       style="font-weight:bold;font-size:44.0158px;line-height:39.9;font-family:Damascus;-inkscape-font-specification:'Damascus Bold';stroke-width:31.1587"
       d="m 72.048927,131.7358 q -3.159337,0 -5.781372,-0.75223 -2.600543,-0.75222 -4.534831,-2.32114 -1.912796,-1.56892 -2.965909,-3.95455 -1.053112,-2.38562 -1.053112,-5.58794 0,-3.37426 1.117589,-5.82436 1.139081,-2.45009 3.159337,-4.062 1.95578,-1.52594 4.513339,-2.23518 2.557559,-0.70924 5.308546,-0.70924 2.471591,0 4.556323,0.5373 2.084733,0.53731 3.890069,1.39699 v 6.59807 h -1.096097 q -0.451334,-0.38686 -1.096097,-0.90267 -0.62327,-0.51581 -1.54743,-1.01012 -0.881176,-0.47283 -1.934288,-0.77372 -1.053113,-0.32238 -2.450098,-0.32238 -3.094861,0 -4.771244,1.97727 -1.654891,1.95578 -1.654891,5.33004 0,3.48172 1.697875,5.28705 1.719367,1.80534 4.857212,1.80534 1.461462,0 2.622035,-0.32238 1.182065,-0.34388 1.95578,-0.79521 0.730731,-0.42984 1.289526,-0.90267 0.558794,-0.47282 1.03162,-0.92416 h 1.096097 v 6.59807 q -1.826828,0.85969 -3.825592,1.35401 -1.977273,0.51581 -4.384387,0.51581 z m 37.998013,-12.70183 q 0,5.95331 -3.48172,9.39204 -3.46022,3.41725 -9.735913,3.41725 -6.275691,0 -9.757409,-3.41725 -3.460227,-3.43873 -3.460227,-9.39204 0,-5.99629 3.481719,-9.41353 3.503211,-3.41725 9.735917,-3.41725 6.318673,0 9.757413,3.43874 3.46022,3.43873 3.46022,9.39204 z m -9.52099,5.86734 q 0.75222,-0.92416 1.11758,-2.21368 0.38686,-1.31102 0.38686,-3.61067 0,-2.12772 -0.38686,-3.56769 -0.38685,-1.43997 -1.0746,-2.29966 -0.687746,-0.88117 -1.654891,-1.24654 -0.967144,-0.36536 -2.084732,-0.36536 -1.117589,0 -1.998765,0.30089 -0.859683,0.30089 -1.654891,1.20355 -0.709239,0.8382 -1.13908,2.29966 -0.40835,1.46146 -0.40835,3.67515 0,1.97727 0.365365,3.43873 0.365366,1.43997 1.074605,2.32115 0.687747,0.83819 1.633399,1.22504 0.967144,0.38686 2.192193,0.38686 1.053112,0 1.998764,-0.34387 0.967144,-0.36537 1.633403,-1.20356 z m 38.53531,6.18972 h -7.73715 v -2.51457 q -1.99877,1.6334 -3.73962,2.40711 -1.74086,0.77372 -4.01903,0.77372 -4.40587,0 -7.0494,-3.39575 -2.64353,-3.39575 -2.64353,-9.15563 0,-3.07337 0.88118,-5.4375 0.90267,-2.38562 2.4501,-4.0835 1.46146,-1.6119 3.54619,-2.49308 2.08473,-0.90267 4.16947,-0.90267 2.1707,0 3.54619,0.47283 1.39699,0.45133 2.85845,1.16057 V 97.649342 h 7.73715 z m -7.73715,-6.66254 v -11.84215 q -0.8167,-0.34387 -1.71937,-0.49431 -0.90267,-0.15045 -1.65489,-0.15045 -3.05188,0 -4.57781,1.9128 -1.52594,1.8913 -1.52594,5.26556 0,3.54619 1.22505,5.1581 1.22505,1.59042 3.93305,1.59042 1.05311,0 2.23518,-0.38686 1.18206,-0.40835 2.08473,-1.05311 z m 29.65908,0.36536 v -5.02915 q -1.56892,0.12896 -3.39575,0.36537 -1.82683,0.21492 -2.77248,0.51581 -1.16057,0.36536 -1.78384,1.0746 -0.60178,0.68775 -0.60178,1.82683 0,0.75222 0.12895,1.22505 0.12896,0.47283 0.64477,0.90267 0.49431,0.42984 1.18206,0.64476 0.68775,0.19343 2.14921,0.19343 1.16057,0 2.34264,-0.47283 1.20356,-0.47282 2.10622,-1.24654 z m 0,3.73963 q -0.62327,0.47282 -1.54743,1.13908 -0.92416,0.66625 -1.74086,1.05311 -1.13908,0.51581 -2.36413,0.75222 -1.22505,0.25791 -2.68651,0.25791 -3.43873,0 -5.75988,-2.12772 -2.32114,-2.12772 -2.32114,-5.4375 0,-2.64353 1.18206,-4.31991 1.18207,-1.67638 3.35277,-2.64353 2.14921,-0.96714 5.33004,-1.37549 3.18082,-0.40835 6.59807,-0.60178 v -0.12895 q 0,-1.99877 -1.6334,-2.75099 -1.6334,-0.77371 -4.81423,-0.77371 -1.9128,0 -4.0835,0.68774 -2.1707,0.66626 -3.11635,1.03162 h -0.70924 v -5.82435 q 1.22505,-0.32238 3.97604,-0.75223 2.77248,-0.45133 5.54496,-0.45133 6.59807,0 9.52099,2.04175 2.94442,2.02025 2.94442,6.36166 v 16.41995 h -7.67268 z m 38.25593,-0.21493 q 0,3.39575 -0.96715,5.7169 -0.96714,2.32115 -2.708,3.63216 -1.74086,1.33251 -4.21245,1.9128 -2.4501,0.60178 -5.54496,0.60178 -2.51457,0 -4.96467,-0.30089 -2.42861,-0.30089 -4.21245,-0.73073 v -6.03928 h 0.94565 q 1.41848,0.55879 3.46023,1.01013 2.04175,0.47282 3.65365,0.47282 2.14921,0 3.48172,-0.40835 1.354,-0.38685 2.06324,-1.11758 0.66626,-0.68775 0.96715,-1.76236 0.30089,-1.0746 0.30089,-2.57905 v -0.45133 q -1.39699,1.13908 -3.09487,1.80534 -1.69787,0.66625 -3.7826,0.66625 -5.07214,0 -7.82312,-3.05188 -2.75099,-3.05187 -2.75099,-9.28458 0,-2.9874 0.83819,-5.1581 0.83819,-2.1707 2.36413,-3.78261 1.41848,-1.50444 3.48172,-2.34264 2.08473,-0.83819 4.25543,-0.83819 1.95578,0 3.5462,0.47283 1.6119,0.45133 2.92292,1.26803 l 0.2794,-1.0746 h 7.50074 z m -7.73715,-4.83572 v -10.93947 q -0.66626,-0.2794 -1.6334,-0.42984 -0.96715,-0.17194 -1.74086,-0.17194 -3.05188,0 -4.57782,1.76235 -1.52594,1.74086 -1.52594,4.87871 0,3.48172 1.28953,4.85721 1.31102,1.37549 3.86858,1.37549 1.16057,0 2.27816,-0.36536 1.11759,-0.36537 2.04175,-0.96715 z"
       id="text13"
       transform="scale(0.94435948,1.0589188)"
       aria-label="codag" />
  </g>
</svg>
