<svg width="1848" height="328" viewBox="0 0 1848 328" fill="none" xmlns="http://www.w3.org/2000/svg">
<g clip-path="url(#clip0_10521_48815)">
<g clip-path="url(#clip1_10521_48815)">
<path d="M95.6668 328C31.8889 328 0 296.111 0 232.333V95.6668C0 31.8889 31.8889 0 95.6668 0H232.333C296.111 0 328 31.8889 328 95.6668V232.333C328 296.111 296.111 328 232.333 328H95.6668Z" fill="white"/>
<path fill-rule="evenodd" clip-rule="evenodd" d="M164.16 276.109C143.771 276.109 125.978 271.447 110.78 262.122C95.5831 252.797 83.7838 239.752 75.3828 222.986C66.9818 206.221 62.7812 186.629 62.7812 164.212C62.7812 141.701 66.9818 122.015 75.3828 105.155C83.7838 88.295 95.5831 75.2026 110.78 65.8778C125.978 56.553 143.771 51.8906 164.16 51.8906C184.549 51.8906 202.342 56.553 217.54 65.8778C232.737 75.2026 244.536 88.295 252.937 105.155C261.338 122.015 265.539 141.701 265.539 164.212C265.539 186.629 261.338 206.221 252.937 222.986C244.536 239.752 232.737 252.797 217.54 262.122C202.342 271.447 184.549 276.109 164.16 276.109ZM208.739 240.197C235.895 224.552 238.064 177.57 213.582 135.258C189.101 92.9467 147.24 71.3291 120.084 86.9739C92.9278 102.619 90.7594 149.602 115.241 191.913C139.722 234.225 181.583 255.842 208.739 240.197Z" fill="#15172B"/>
</g>
<path d="M488.68 262.4C459.28 262.4 438 254.607 424.84 239.02C411.68 223.433 405.1 199.26 405.1 166.5C405.1 133.647 411.633 109.427 424.7 93.84C437.86 78.16 459.187 70.32 488.68 70.32C518.173 70.32 539.5 78.16 552.66 93.84C565.82 109.52 572.4 133.74 572.4 166.5C572.4 199.26 565.82 223.433 552.66 239.02C539.5 254.607 518.173 262.4 488.68 262.4ZM488.68 238.88C503.427 238.88 515.373 234.307 524.52 225.16C533.667 215.92 538.24 196.367 538.24 166.5C538.24 136.353 533.667 116.753 524.52 107.7C515.373 98.5533 503.427 93.98 488.68 93.98C474.027 93.98 462.127 98.5533 452.98 107.7C443.833 116.753 439.26 136.353 439.26 166.5C439.26 196.367 443.833 215.92 452.98 225.16C462.127 234.307 474.027 238.88 488.68 238.88ZM692.638 173.64C692.638 151.427 690.025 136.493 684.798 128.84C679.571 121.093 671.965 117.22 661.978 117.22C650.591 117.22 641.585 121.093 634.958 128.84C628.425 136.493 625.158 145.173 625.158 154.88L612.138 146.2C612.138 131.547 617.785 119.133 629.078 108.96C640.465 98.6933 655.585 93.56 674.438 93.56C694.225 93.56 707.851 100 715.318 112.88C722.785 125.667 726.518 145.92 726.518 173.64H692.638ZM591.558 261V95.1H617.878L625.298 126.18V261H591.558ZM815.759 262.4C788.693 262.4 769.326 255.12 757.659 240.56C745.993 226 740.159 205.233 740.159 178.26C740.159 150.073 745.993 128.933 757.659 114.84C769.326 100.653 788.693 93.56 815.759 93.56C840.399 93.56 857.759 99.5333 867.839 111.48C878.013 123.427 883.659 136.493 884.779 150.68L854.679 160.9C854.213 147.273 850.619 136.587 843.899 128.84C837.179 121.093 827.799 117.22 815.759 117.22C803.626 117.22 793.733 121.56 786.079 130.24C778.519 138.92 774.739 154.927 774.739 178.26C774.739 200.193 778.566 215.78 786.219 225.02C793.966 234.26 803.813 238.88 815.759 238.88C827.706 238.88 837.039 234.727 843.759 226.42C850.573 218.113 854.213 207.893 854.679 195.76L884.779 206.4C883.659 219.093 878.013 231.6 867.839 243.92C857.666 256.24 840.306 262.4 815.759 262.4ZM906.569 261V41.2H940.449V261H906.569ZM1012.41 261V168.32C1012.41 149.28 1009.61 135.98 1004.01 128.42C998.409 120.86 990.102 117.08 979.089 117.08C967.982 117.08 958.649 121.28 951.089 129.68C943.622 138.08 939.889 148.767 939.889 161.74L923.509 152.36C923.509 138.453 929.762 125.2 942.269 112.6C954.869 99.9067 971.296 93.56 991.549 93.56C1011.34 93.56 1025.38 100.047 1033.69 113.02C1042 125.993 1046.15 143.96 1046.15 166.92V261H1012.41ZM1142.04 262.4C1114.6 262.4 1095.09 254.887 1083.52 239.86C1071.76 224.833 1065.88 204.113 1065.88 177.7C1065.88 150.073 1071.85 129.12 1083.8 114.84C1095.65 100.56 1114.88 93.42 1141.48 93.42C1168.92 93.42 1188.33 100.56 1199.72 114.84C1211.01 129.307 1216.66 150.167 1216.66 177.42C1216.66 181.247 1216.43 184.747 1215.96 187.92H1095.14V167.2H1182.5C1181.66 148.627 1178.21 135.56 1172.14 128C1164.86 119.693 1154.69 115.54 1141.62 115.54C1128.83 115.54 1118.47 119.973 1110.54 128.84C1102.61 137.613 1098.64 153.947 1098.64 177.84C1098.64 200.613 1102.51 216.667 1110.26 226C1117.91 235.52 1128.51 240.28 1142.04 240.28V262.4ZM1142.04 240.28C1149.79 240.28 1156.51 239.067 1162.2 236.64C1167.89 234.12 1172.28 229.92 1175.36 224.04C1178.44 218.067 1180.82 211.347 1182.5 203.88L1212.88 212.28C1211.2 223.48 1207.33 232.86 1201.26 240.42C1195.19 248.073 1187.49 253.627 1178.16 257.08C1168.92 260.627 1156.88 262.4 1142.04 262.4V240.28ZM1310.23 262.26C1289.69 262.26 1272.89 258.76 1259.83 251.76C1246.76 244.667 1238.55 232.207 1235.19 214.38L1265.01 203.88C1266.78 216.573 1271.59 225.767 1279.43 231.46C1287.27 237.153 1297.72 240 1310.79 240C1322.64 240 1331.6 237.947 1337.67 233.84C1343.83 229.733 1346.91 224.273 1346.91 217.46C1346.91 207.847 1342.01 201.5 1332.21 198.42C1322.41 195.247 1310.09 192.12 1295.25 189.04C1277.7 185.68 1263.51 180.5 1252.69 173.5C1241.86 166.5 1236.45 154.927 1236.45 138.78C1236.45 123.847 1242.61 112.6 1254.93 105.04C1267.34 97.3867 1284.14 93.56 1305.33 93.56C1326.14 93.56 1342.75 97.1067 1355.17 104.2C1367.58 111.293 1375.33 123.193 1378.41 139.9L1348.59 150.26C1346.81 139.153 1342.19 130.66 1334.73 124.78C1327.26 118.807 1317.27 115.82 1304.77 115.82C1292.91 115.82 1284.09 117.873 1278.31 121.98C1272.61 126.087 1269.77 131.687 1269.77 138.78C1269.77 147.647 1274.39 153.667 1283.63 156.84C1292.96 159.92 1304.81 162.953 1319.19 165.94C1336.55 169.207 1351.06 174.06 1362.73 180.5C1374.49 186.847 1380.37 198.373 1380.37 215.08C1380.37 231.32 1374.35 243.267 1362.31 250.92C1350.36 258.48 1333 262.26 1310.23 262.26ZM1472.57 262.96C1459.6 262.96 1448.68 260.16 1439.81 254.56C1431.04 248.867 1426.65 238.507 1426.65 223.48V118.62H1388.01V95.1H1426.65V57.44H1460.53V95.1H1514.29V118.62H1460.53V215.78C1460.53 225.58 1462.58 232.067 1466.69 235.24C1470.8 238.413 1476.54 240 1483.91 240C1490.72 240 1497.4 238.88 1503.93 236.64V259.32C1493.94 261.747 1483.49 262.96 1472.57 262.96ZM1633.84 173.64C1633.84 151.427 1631.23 136.493 1626 128.84C1620.78 121.093 1613.17 117.22 1603.18 117.22C1591.8 117.22 1582.79 121.093 1576.16 128.84C1569.63 136.493 1566.36 145.173 1566.36 154.88L1553.34 146.2C1553.34 131.547 1558.99 119.133 1570.28 108.96C1581.67 98.6933 1596.79 93.56 1615.64 93.56C1635.43 93.56 1649.06 100 1656.52 112.88C1663.99 125.667 1667.72 145.92 1667.72 173.64H1633.84ZM1532.76 261V95.1H1559.08L1566.5 126.18V261H1532.76ZM1744.47 262.54C1735.42 262.54 1727.25 261.747 1719.97 260.16C1712.78 258.573 1706.58 255.913 1701.35 252.18C1696.22 248.353 1692.25 243.173 1689.45 236.64C1686.74 230.107 1685.39 221.893 1685.39 212C1685.39 202.573 1686.7 194.733 1689.31 188.48C1692.02 182.133 1695.89 177.093 1700.93 173.36C1705.97 169.627 1712.13 166.967 1719.41 165.38C1726.69 163.7 1734.9 162.86 1744.05 162.86H1797.67V154.32C1797.67 145.267 1796.13 137.987 1793.05 132.48C1789.97 126.88 1785.54 122.82 1779.75 120.3C1774.06 117.78 1767.24 116.52 1759.31 116.52C1752.59 116.52 1746.52 117.64 1741.11 119.88C1735.79 122.12 1731.31 125.807 1727.67 130.94C1724.03 136.073 1721.56 142.887 1720.25 151.38L1687.07 142.42C1688.66 133.46 1691.6 125.853 1695.89 119.6C1700.28 113.347 1705.64 108.307 1711.99 104.48C1718.43 100.653 1725.62 97.8533 1733.55 96.08C1741.58 94.3067 1750.12 93.42 1759.17 93.42C1774.76 93.42 1787.92 95.52 1798.65 99.72C1809.48 103.92 1817.69 110.593 1823.29 119.74C1828.89 128.793 1831.69 140.88 1831.69 156V261H1803.41L1800.61 240.56C1799.3 242.987 1797.11 245.46 1794.03 247.98C1790.95 250.5 1787.03 252.88 1782.27 255.12C1777.51 257.36 1771.96 259.18 1765.61 260.58C1759.36 261.887 1752.31 262.54 1744.47 262.54ZM1751.89 240.56C1759.82 240.56 1766.87 239.627 1773.03 237.76C1779.19 235.8 1784.32 233.327 1788.43 230.34C1792.63 227.26 1795.57 224.087 1797.25 220.82V181.62H1752.03C1747.46 181.62 1743.16 182.04 1739.15 182.88C1735.23 183.627 1731.82 185.027 1728.93 187.08C1726.04 189.133 1723.75 192.12 1722.07 196.04C1720.48 199.867 1719.69 204.813 1719.69 210.88C1719.69 216.947 1720.48 221.893 1722.07 225.72C1723.75 229.547 1726.04 232.533 1728.93 234.68C1731.92 236.827 1735.37 238.367 1739.29 239.3C1743.21 240.14 1747.41 240.56 1751.89 240.56Z" fill="white"/>
</g>
<defs>
<clipPath id="clip0_10521_48815">
<rect width="1848" height="328" fill="white"/>
</clipPath>
<clipPath id="clip1_10521_48815">
<rect width="328" height="328" fill="white"/>
</clipPath>
</defs>
</svg>
